<svg viewBox="0 0 1200 630" xmlns="http://www.w3.org/2000/svg" width="1200" height="630" fill="none" preserveAspectRatio="xMidYMid slice"><defs><linearGradient id="c14-bg" x1="0" x2="0" y1="0" y2="630" gradientUnits="userSpaceOnUse"><stop offset="0" stop-color="#fbbf24"/><stop offset=".35" stop-color="#f97316"/><stop offset=".7" stop-color="#ec4899"/><stop offset="1" stop-color="#312e81"/></linearGradient><linearGradient id="c14-glass" x1="0" x2="0" y1="0" y2="1"><stop offset="0" stop-color="rgba(255,255,255,0.24)"/><stop offset="1" stop-color="rgba(255,255,255,0.08)"/></linearGradient><filter id="c14-soft" width="200%" height="200%" x="-50%" y="-50%"><feGaussianBlur stdDeviation="60"/></filter></defs><path fill="url(#c14-bg)" d="M0 0h1200v630H0z"/><circle cx="240" cy="140" r="210" fill="#fde68a" filter="url(#c14-soft)" opacity=".55"/><circle cx="980" cy="480" r="260" fill="#8b5cf6" filter="url(#c14-soft)" opacity=".35"/><path fill="rgba(255,255,255,0.22)" d="M0 360c140-80 300-60 420-18s260 60 360 16c140-62 250-118 420-48v320H0z" opacity=".28"/><path fill="rgba(255,255,255,0.16)" d="M0 430c180-62 320-10 500 22s260-24 360-60c170-60 240-32 340 8v230H0z" opacity=".32"/><g transform="translate(90 110)"><rect width="560" height="340" fill="rgba(255,255,255,0.08)" stroke="rgba(255,255,255,0.18)" rx="28"/><rect width="520" height="140" x="20" y="26" fill="rgba(49,46,129,0.28)" stroke="rgba(255,255,255,0.18)" rx="22"/><text x="48" y="96" fill="#0f172a" font-family="Inter, Arial, sans-serif" font-size="44" font-weight="800">Aurora Sunset</text><text x="48" y="132" fill="#1e1b4b" font-family="Inter, Arial, sans-serif" font-size="20" opacity=".9">Portfólio que mistura criatividade, produto e tech</text><g opacity=".9" transform="translate(40 182)"><rect width="150" height="46" fill="rgba(255,255,255,0.36)" stroke="rgba(49,46,129,0.3)" rx="14"/><text x="75" y="30" fill="#312e81" font-family="Inter, Arial, sans-serif" font-size="16" font-weight="700" text-anchor="middle">Conteúdo · Talks</text></g><g opacity=".9" transform="translate(210 182)"><rect width="150" height="46" fill="rgba(255,255,255,0.3)" stroke="rgba(244,63,94,0.3)" rx="14"/><text x="75" y="30" fill="#be123c" font-family="Inter, Arial, sans-serif" font-size="16" font-weight="700" text-anchor="middle">Produtos</text></g><g opacity=".9" transform="translate(380 182)"><rect width="140" height="46" fill="rgba(255,255,255,0.3)" stroke="rgba(251,191,36,0.35)" rx="14"/><text x="70" y="30" fill="#92400e" font-family="Inter, Arial, sans-serif" font-size="16" font-weight="700" text-anchor="middle">Comunidade</text></g><g transform="translate(40 246)"><rect width="500" height="64" fill="url(#c14-glass)" stroke="rgba(255,255,255,0.18)" rx="16"/><text x="28" y="40" fill="#0f172a" font-family="ui-monospace, SFMono-Regular, Menlo, Monaco, Consolas, 'Liberation Mono', 'Courier New', monospace" font-size="18">portfólio · newsletter · open source · mentorias</text></g></g><g transform="translate(720 120)"><rect width="420" height="180" fill="rgba(255,255,255,0.16)" stroke="rgba(255,255,255,0.26)" rx="22"/><text x="36" y="72" fill="#0b1024" font-family="Inter, Arial, sans-serif" font-size="34" font-weight="800">Perfil criativo</text><text x="36" y="108" fill="#111827" font-family="Inter, Arial, sans-serif" font-size="18" opacity=".9">Stories visuais + links para o que você constrói</text><g opacity=".92" transform="translate(28 122)"><rect width="118" height="36" fill="rgba(255,255,255,0.34)" rx="11"/><text x="59" y="24" fill="#312e81" font-family="Inter, Arial, sans-serif" font-size="14" font-weight="700" text-anchor="middle">Figma</text></g><g opacity=".92" transform="translate(156 122)"><rect width="128" height="36" fill="rgba(255,255,255,0.34)" rx="11"/><text x="64" y="24" fill="#7c2d12" font-family="Inter, Arial, sans-serif" font-size="14" font-weight="700" text-anchor="middle">Design Systems</text></g><g opacity=".92" transform="translate(296 122)"><rect width="96" height="36" fill="rgba(255,255,255,0.34)" rx="11"/><text x="48" y="24" fill="#9d174d" font-family="Inter, Arial, sans-serif" font-size="14" font-weight="700" text-anchor="middle">Dev</text></g></g></svg>
