<svg viewBox="0 0 1200 630" xmlns="http://www.w3.org/2000/svg" width="1200" height="630" fill="none" preserveAspectRatio="xMidYMid slice"><defs><linearGradient id="c16-bg" x1="0" x2="1200" y1="0" y2="630" gradientUnits="userSpaceOnUse"><stop offset="0" stop-color="#030712"/><stop offset=".6" stop-color="#0b1222"/><stop offset="1" stop-color="#0f172a"/></linearGradient><linearGradient id="c16-line" x1="0" x2="1200" y1="0" y2="0" gradientUnits="userSpaceOnUse"><stop offset="0" stop-color="#22c55e" stop-opacity="0"/><stop offset=".22" stop-color="#22c55e" stop-opacity=".6"/><stop offset=".55" stop-color="#0ea5e9" stop-opacity=".6"/><stop offset=".9" stop-color="#22c55e" stop-opacity=".6"/><stop offset="1" stop-color="#22c55e" stop-opacity="0"/></linearGradient><pattern id="c16-matrix" width="120" height="120" patternUnits="userSpaceOnUse"><path stroke="rgba(34,197,94,0.12)" stroke-width="2" d="M10 20h60m0 0v60m0 0h40m0 0v40"/><circle cx="10" cy="20" r="3" fill="rgba(14,165,233,0.24)"/><circle cx="70" cy="20" r="3" fill="rgba(34,197,94,0.24)"/><circle cx="70" cy="80" r="3" fill="rgba(14,165,233,0.18)"/><circle cx="110" cy="80" r="3" fill="rgba(34,197,94,0.18)"/><circle cx="110" cy="120" r="3" fill="rgba(14,165,233,0.12)"/></pattern><filter id="c16-glow" width="200%" height="200%" x="-50%" y="-50%"><feGaussianBlur stdDeviation="6"/></filter></defs><path fill="url(#c16-bg)" d="M0 0h1200v630H0z"/><path fill="url(#c16-matrix)" d="M0 0h1200v630H0z" opacity=".4"/><path stroke="url(#c16-line)" stroke-width="3" d="M0 480c210-68 330 50 520 10s270-190 470-150c100 22 150 62 210 54" filter="url(#c16-glow)" opacity=".9"><animate attributeName="d" dur="7s" repeatCount="indefinite" values="M0 480C210 412 330 530 520 490C710 450 820 320 1020 360C1120 382 1170 422 1200 414; M0 480C230 438 360 540 560 500C730 460 860 320 1040 360C1120 384 1180 430 1200 414; M0 480C210 412 330 530 520 490C710 450 820 320 1020 360C1120 382 1170 422 1200 414"/></path><g transform="translate(100 120)"><rect width="520" height="320" fill="rgba(15,23,42,0.65)" stroke="rgba(34,197,94,0.22)" rx="24"/><text x="32" y="74" fill="#e2e8f0" font-family="Inter, Arial, sans-serif" font-size="38" font-weight="800">Terminal Flow</text><text x="32" y="108" fill="#a7f3d0" font-family="Inter, Arial, sans-serif" font-size="18" opacity=".92">Código, automações e comunidade dev</text><g opacity=".9" transform="translate(32 132)"><rect width="456" height="44" fill="rgba(15,23,42,0.8)" stroke="rgba(14,165,233,0.25)" rx="10"/><text x="18" y="28" fill="#67e8f9" font-family="ui-monospace, SFMono-Regular, Menlo, Monaco, Consolas, 'Liberation Mono', 'Courier New', monospace" font-size="16">$ deploy --env=prod --auto-approve</text></g><g opacity=".9" transform="translate(32 188)"><rect width="456" height="44" fill="rgba(15,23,42,0.8)" stroke="rgba(34,197,94,0.25)" rx="10"/><text x="18" y="28" fill="#bbf7d0" font-family="ui-monospace, SFMono-Regular, Menlo, Monaco, Consolas, 'Liberation Mono', 'Courier New', monospace" font-size="16">tasks: shipping · monitoring · mentoring</text></g><g transform="translate(32 244)"><rect width="150" height="42" fill="rgba(34,197,94,0.15)" stroke="rgba(34,197,94,0.35)" rx="12"/><text x="75" y="27" fill="#bbf7d0" font-family="Inter, Arial, sans-serif" font-size="15" font-weight="700" text-anchor="middle">DevOps</text></g><g transform="translate(196 244)"><rect width="150" height="42" fill="rgba(14,165,233,0.15)" stroke="rgba(14,165,233,0.32)" rx="12"/><text x="75" y="27" fill="#bae6fd" font-family="Inter, Arial, sans-serif" font-size="15" font-weight="700" text-anchor="middle">APIs</text></g><g transform="translate(360 244)"><rect width="150" height="42" fill="rgba(79,70,229,0.16)" stroke="rgba(79,70,229,0.3)" rx="12"/><text x="75" y="27" fill="#c7d2fe" font-family="Inter, Arial, sans-serif" font-size="15" font-weight="700" text-anchor="middle">Mentor</text></g></g><g transform="translate(700 120)"><rect width="420" height="200" fill="rgba(15,23,42,0.7)" stroke="rgba(14,165,233,0.22)" rx="22"/><text x="30" y="68" fill="#e2e8f0" font-family="Inter, Arial, sans-serif" font-size="30" font-weight="800">Stack em produção</text><text x="30" y="102" fill="#bae6fd" font-family="Inter, Arial, sans-serif" font-size="16" opacity=".9">Node · Next · Go · Kubernetes · Observability</text><g opacity=".94" transform="translate(26 118)"><rect width="122" height="38" fill="rgba(34,197,94,0.16)" rx="11"/><text x="61" y="25" fill="#bbf7d0" font-family="Inter, Arial, sans-serif" font-size="14" font-weight="700" text-anchor="middle">Ship Fast</text></g><g opacity=".94" transform="translate(164 118)"><rect width="122" height="38" fill="rgba(14,165,233,0.18)" rx="11"/><text x="61" y="25" fill="#e0f2fe" font-family="Inter, Arial, sans-serif" font-size="14" font-weight="700" text-anchor="middle">Measure</text></g><g opacity=".94" transform="translate(302 118)"><rect width="92" height="38" fill="rgba(79,70,229,0.18)" rx="11"/><text x="46" y="25" fill="#e0e7ff" font-family="Inter, Arial, sans-serif" font-size="14" font-weight="700" text-anchor="middle">Learn</text></g></g></svg>
