<svg viewBox="0 0 1200 630" xmlns="http://www.w3.org/2000/svg" width="1200" height="630" fill="none" preserveAspectRatio="xMidYMid slice"><defs><linearGradient id="capa8-bg" x1="0" x2="1200" y1="0" y2="630" gradientUnits="userSpaceOnUse"><stop offset="0" stop-color="#0f172a"/><stop offset=".45" stop-color="#7c3aed" stop-opacity=".85"/><stop offset="1" stop-color="#ec4899" stop-opacity=".95"/></linearGradient><linearGradient id="capa8-sun" x1="0" x2="1" y1="0" y2="1"><stop offset="0" stop-color="#f97316" stop-opacity=".95"/><stop offset=".55" stop-color="#f59e0b" stop-opacity=".85"/><stop offset="1" stop-color="#fde68a" stop-opacity=".25"/></linearGradient><linearGradient id="capa8-glass" x1="0" x2="0" y1="0" y2="1"><stop offset="0" stop-color="rgba(255,255,255,.16)"/><stop offset="1" stop-color="rgba(255,255,255,.05)"/></linearGradient><pattern id="capa8-stars" width="120" height="120" patternUnits="userSpaceOnUse"><path stroke="rgba(255,255,255,.22)" stroke-linecap="round" stroke-width="2" d="M12 18h2m54 26h2m22-24h2M35 95h2m73-25h2"/></pattern><filter id="capa8-soft" width="200%" height="200%" x="-50%" y="-50%"><feGaussianBlur stdDeviation="10"/></filter></defs><path fill="url(#capa8-bg)" d="M0 0h1200v630H0z"/><path fill="url(#capa8-stars)" d="M0 0h1200v630H0z" opacity=".6"/><circle cx="880" cy="180" r="170" fill="url(#capa8-sun)" opacity=".95"/><circle cx="880" cy="180" r="240" fill="#f97316" filter="url(#capa8-soft)" opacity=".12"/><path fill="rgba(2,6,23,.60)" d="M0 455c190-25 310-95 470-65 180 35 270 130 450 105 130-20 200-60 280-45v180H0z"/><path stroke="rgba(255,255,255,.22)" stroke-width="2" d="M0 498c180-28 320-78 520-48 170 25 260 110 460 70 110-25 170-50 220-35" opacity=".6"/><g transform="translate(95 120)"><rect width="720" height="300" fill="url(#capa8-glass)" stroke="rgba(255,255,255,.18)" rx="26"/><rect width="672" height="248" x="24" y="26" fill="rgba(15,23,42,.35)" stroke="rgba(255,255,255,.18)" rx="18"/><g font-family="Arial, sans-serif"><text fill="#fff" font-size="58" font-weight="800" transform="translate(58 88)">Gradient Glass</text><text y="58" fill="#f1f5f9" font-size="28" opacity=".9" transform="translate(58 88)">Banner vibrante com efeito &quot;glass&quot;</text><g opacity=".95" transform="translate(58 196)"><rect width="132" height="40" fill="rgba(255,255,255,.18)" rx="20"/><text x="66" y="26" fill="#fff" font-size="18" text-anchor="middle">Portfolio</text></g><g opacity=".95" transform="translate(208 196)"><rect width="150" height="40" fill="rgba(255,255,255,.18)" rx="20"/><text x="75" y="26" fill="#fff" font-size="18" text-anchor="middle">Open Source</text></g><g opacity=".95" transform="translate(378 196)"><rect width="120" height="40" fill="rgba(255,255,255,.18)" rx="20"/><text x="60" y="26" fill="#fff" font-size="18" text-anchor="middle">Builder</text></g></g></g></svg>
