<svg viewBox="0 0 1200 400" xmlns="http://www.w3.org/2000/svg" width="1200" height="400"><defs><linearGradient id="capa4-grad1" x1="0%" x2="100%" y1="0%" y2="100%"><stop offset="0%" stop-color="#1e3a8a"/><stop offset="100%" stop-color="#3b82f6"/></linearGradient><linearGradient id="capa4-grad2" x1="0%" x2="100%" y1="0%" y2="0%"><stop offset="0%" stop-color="#3b82f6" stop-opacity=".8"/><stop offset="50%" stop-color="#60a5fa" stop-opacity=".6"/><stop offset="100%" stop-color="#93c5fd" stop-opacity=".4"/></linearGradient></defs><path fill="url(#capa4-grad1)" d="M0 0h1200v400H0z"/><circle cx="100" cy="100" r="80" fill="url(#capa4-grad2)" opacity=".3"/><circle cx="1100" cy="300" r="100" fill="url(#capa4-grad2)" opacity=".2"/><path fill="#fff" d="M116 160c-19.878 0-36 16.119-36 36 0 15.906 10.314 29.4 24.621 34.161 1.797.333 2.379-.783 2.379-1.731v-6.702c-10.014 2.178-12.099-4.248-12.099-4.248-1.638-4.161-3.999-5.268-3.999-5.268-3.267-2.235.249-2.187.249-2.187 3.615.252 5.517 3.711 5.517 3.711 3.21 5.502 8.421 3.912 10.476 2.991.321-2.325 1.254-3.915 2.286-4.812-7.995-.915-16.401-4.002-16.401-17.793 0-3.933 1.407-7.143 3.708-9.663-.372-.909-1.605-4.572.351-9.528 0 0 3.024-.966 9.903 3.69 2.871-.798 5.949-1.197 9.009-1.212 3.06.015 6.141.414 9.018 1.212 6.873-4.656 9.891-3.69 9.891-3.69 1.959 4.959.726 8.622.354 9.528 2.31 2.52 3.705 5.733 3.705 9.663 0 13.827-8.421 16.872-16.437 17.763 1.29 1.116 2.469 3.306 2.469 6.666v9.879c0 .957.576 2.082 2.403 1.728C141.698 225.391 152 211.9 152 196c0-19.881-16.119-36-36-36"/><text x="240" y="160" fill="#fff" font-family="Arial, sans-serif" font-size="56" font-weight="bold">
    Developer Profile
  </text><text x="240" y="220" fill="#e0e7ff" font-family="Arial, sans-serif" font-size="32">
    Building the Future, One Commit at a Time
  </text><path stroke="#60a5fa" stroke-width="3" d="M240 240h660" opacity=".6"/><g transform="translate(240 270)"><rect width="100" height="35" fill="#60a5fa" opacity=".8" rx="17.5"/><text x="50" y="23" fill="#fff" font-family="Arial, sans-serif" font-size="16" text-anchor="middle">React</text></g><g transform="translate(360 270)"><rect width="100" height="35" fill="#60a5fa" opacity=".8" rx="17.5"/><text x="50" y="23" fill="#fff" font-family="Arial, sans-serif" font-size="16" text-anchor="middle">TypeScript</text></g><g transform="translate(480 270)"><rect width="100" height="35" fill="#60a5fa" opacity=".8" rx="17.5"/><text x="50" y="23" fill="#fff" font-family="Arial, sans-serif" font-size="16" text-anchor="middle">Node.js</text></g></svg>
