<svg viewBox="0 0 1200 630" xmlns="http://www.w3.org/2000/svg" width="1200" height="630" fill="none" preserveAspectRatio="xMidYMid slice"><defs><radialGradient id="blueGlow"><stop offset="0%" stop-color="#0ea5e9" stop-opacity=".4"/><stop offset="100%" stop-color="#0ea5e9" stop-opacity="0"/></radialGradient><radialGradient id="cyanGlow"><stop offset="0%" stop-color="#06b6d4" stop-opacity=".3"/><stop offset="100%" stop-color="#06b6d4" stop-opacity="0"/></radialGradient><linearGradient id="darkBg2" x1="0%" x2="100%" y1="0%" y2="100%"><stop offset="0%" stop-color="#0d0221"/><stop offset="50%" stop-color="#1f0747"/><stop offset="100%" stop-color="#150033"/></linearGradient><linearGradient id="blueAccent" x1="0%" x2="100%" y1="0%" y2="100%"><stop offset="0%" stop-color="#0ea5e9" stop-opacity=".8"/><stop offset="100%" stop-color="#06b6d4" stop-opacity=".6"/></linearGradient><pattern id="darkDots2" width="30" height="30" patternUnits="userSpaceOnUse"><circle cx="3" cy="3" r="1.5" fill="rgba(6, 182, 212, 0.15)"/></pattern></defs><path fill="url(#darkBg2)" d="M0 0h1200v630H0z"/><path fill="url(#darkDots2)" d="M0 0h1200v630H0z" opacity=".4"/><circle cx="300" cy="200" r="250" fill="url(#blueGlow)"/><circle cx="900" cy="400" r="300" fill="url(#cyanGlow)"/><circle cx="600" cy="315" r="200" fill="url(#blueGlow)" opacity=".5"/><path fill="url(#blueAccent)" d="m600 100 100 150-100 150-100-150z" opacity=".2"><animate attributeName="points" dur="5s" repeatCount="indefinite" values="600,100 700,250 600,400 500,250; 600,80 720,250 600,420 480,250; 600,100 700,250 600,400 500,250"/></path><circle cx="200" cy="500" r="100" stroke="#0ea5e9" stroke-width="2" opacity=".3"><animate attributeName="r" dur="3s" repeatCount="indefinite" values="100;130;100"/></circle><circle cx="1000" cy="150" r="80" stroke="#06b6d4" stroke-width="2" opacity=".4"><animate attributeName="r" dur="4s" repeatCount="indefinite" values="80;110;80"/></circle><path stroke="#0ea5e9" stroke-width="2" d="M100 300q200-100 400 0" opacity=".2"/><path stroke="#06b6d4" stroke-width="2" d="m700 100 400 200" opacity=".2"/><rect width="650" height="280" x="275" y="175" fill="rgba(6, 182, 212, 0.04)" stroke="#0ea5e9" stroke-width="2" opacity=".25" rx="20"/></svg>
