<svg viewBox="0 0 1200 630" xmlns="http://www.w3.org/2000/svg" width="1200" height="630" fill="none" preserveAspectRatio="xMidYMid slice"><defs><linearGradient id="darkBg" x1="0%" x2="100%" y1="0%" y2="100%"><stop offset="0%" stop-color="#0f0f1f"/><stop offset="50%" stop-color="#1a1a2e"/><stop offset="100%" stop-color="#16213e"/></linearGradient><linearGradient id="purpleAccent" x1="0%" x2="100%" y1="0%" y2="100%"><stop offset="0%" stop-color="#a855f7" stop-opacity=".8"/><stop offset="100%" stop-color="#ec4899" stop-opacity=".6"/></linearGradient><linearGradient id="violetAccent" x1="100%" x2="0%" y1="0%" y2="100%"><stop offset="0%" stop-color="#7c3aed" stop-opacity=".7"/><stop offset="100%" stop-color="#a855f7" stop-opacity=".5"/></linearGradient><radialGradient id="purpleGlow"><stop offset="0%" stop-color="#a855f7" stop-opacity=".4"/><stop offset="100%" stop-color="#a855f7" stop-opacity="0"/></radialGradient><radialGradient id="pinkGlow"><stop offset="0%" stop-color="#ec4899" stop-opacity=".3"/><stop offset="100%" stop-color="#ec4899" stop-opacity="0"/></radialGradient><pattern id="darkDots" width="20" height="20" patternUnits="userSpaceOnUse"><circle cx="2" cy="2" r="1" fill="rgba(168, 85, 247, 0.1)"/></pattern></defs><path fill="url(#darkBg)" d="M0 0h1200v630H0z"/><path fill="url(#darkDots)" d="M0 0h1200v630H0z" opacity=".5"/><circle cx="200" cy="150" r="300" fill="url(#purpleGlow)"/><circle cx="1000" cy="500" r="350" fill="url(#pinkGlow)"/><circle cx="150" cy="180" r="120" fill="url(#purpleAccent)" opacity=".25"><animate attributeName="r" dur="4s" repeatCount="indefinite" values="120;140;120"/></circle><circle cx="150" cy="180" r="90" stroke="#a855f7" stroke-width="3" opacity=".4"><animate attributeName="r" dur="3s" repeatCount="indefinite" values="90;100;90"/></circle><rect width="180" height="180" x="300" y="100" fill="url(#violetAccent)" opacity=".2" rx="20" transform="rotate(-15 390 190)"><animateTransform attributeName="transform" dur="5s" repeatCount="indefinite" type="rotate" values="-15 390 190; -20 390 190; -15 390 190"/></rect><rect width="200" height="200" x="850" y="350" fill="url(#purpleAccent)" opacity=".18" rx="25" transform="rotate(20 950 450)"><animateTransform attributeName="transform" dur="6s" repeatCount="indefinite" type="rotate" values="20 950 450; 25 950 450; 20 950 450"/></rect><path fill="url(#purpleAccent)" stroke="#ec4899" stroke-width="2" d="m600 200 80 40v80l-80 40-80-40v-80z" opacity=".25"><animate attributeName="opacity" dur="4s" repeatCount="indefinite" values="0.25;0.4;0.25"/></path><path stroke="#a855f7" stroke-width="2" d="m50 300 150 50" opacity=".2"/><path stroke="#ec4899" stroke-width="2" d="m1000 200 150 100" opacity=".2"/><rect width="600" height="250" x="300" y="190" fill="rgba(168, 85, 247, 0.05)" stroke="#a855f7" stroke-width="2" opacity=".3" rx="20"/></svg>
