<svg viewBox="0 0 1200 630" xmlns="http://www.w3.org/2000/svg" width="1200" height="630" fill="none" preserveAspectRatio="xMidYMid slice"><defs><linearGradient id="c15-bg" x1="0" x2="1200" y1="0" y2="630" gradientUnits="userSpaceOnUse"><stop offset="0" stop-color="#f8fafc"/><stop offset="1" stop-color="#e2e8f0"/></linearGradient><linearGradient id="c15-accent" x1="0" x2="1" y1="0" y2="1"><stop offset="0" stop-color="#0ea5e9" stop-opacity=".18"/><stop offset="1" stop-color="#7c3aed" stop-opacity=".16"/></linearGradient><pattern id="c15-dots" width="36" height="36" patternUnits="userSpaceOnUse"><circle cx="8" cy="8" r="2" fill="rgba(15,23,42,0.12)"/></pattern><filter id="c15-blur" width="200%" height="200%" x="-50%" y="-50%"><feGaussianBlur stdDeviation="50"/></filter></defs><path fill="url(#c15-bg)" d="M0 0h1200v630H0z"/><path fill="url(#c15-dots)" d="M0 0h1200v630H0z" opacity=".35"/><circle cx="210" cy="160" r="180" fill="#0ea5e9" filter="url(#c15-blur)" opacity=".18"/><circle cx="980" cy="500" r="200" fill="#7c3aed" filter="url(#c15-blur)" opacity=".18"/><path fill="url(#c15-accent)" d="M0 360c160-42 280-10 420 40s280 86 460-8c120-62 220-72 320-30v268H0z" opacity=".65"/><g transform="translate(80 120)"><rect width="580" height="360" fill="#fff" stroke="rgba(15,23,42,0.06)" rx="26"/><text x="42" y="84" fill="#0f172a" font-family="Inter, Arial, sans-serif" font-size="40" font-weight="800">Clean Focus</text><text x="42" y="120" fill="#334155" font-family="Inter, Arial, sans-serif" font-size="18" opacity=".85">Perfil profissional com metas claras, métricas e entrega</text><g opacity=".95" transform="translate(42 146)"><rect width="240" height="86" fill="rgba(14,165,233,0.08)" stroke="rgba(14,165,233,0.2)" rx="16"/><text x="18" y="36" fill="#0f172a" font-family="Inter, Arial, sans-serif" font-size="16" font-weight="700">Meta trimestral</text><text x="18" y="62" fill="#0ea5e9" font-family="Inter, Arial, sans-serif" font-size="32" font-weight="800">+12 releases</text></g><g opacity=".95" transform="translate(302 146)"><rect width="220" height="86" fill="rgba(124,58,237,0.08)" stroke="rgba(124,58,237,0.18)" rx="16"/><text x="16" y="36" fill="#0f172a" font-family="Inter, Arial, sans-serif" font-size="16" font-weight="700">Métricas</text><text x="16" y="62" fill="#7c3aed" font-family="Inter, Arial, sans-serif" font-size="28" font-weight="800">NPS 74</text></g><g transform="translate(42 252)"><rect width="480" height="62" fill="rgba(15,23,42,0.04)" stroke="rgba(15,23,42,0.08)" rx="14"/><text x="24" y="40" fill="#0f172a" font-family="ui-monospace, SFMono-Regular, Menlo, Monaco, Consolas, 'Liberation Mono', 'Courier New', monospace" font-size="17">status: shipping · writing · mentoring</text></g><g opacity=".9" transform="translate(42 326)"><rect width="520" height="20" fill="#e2e8f0" rx="10"/><rect width="360" height="20" fill="#0ea5e9" rx="10"/><text x="530" y="16" fill="#334155" font-family="Inter, Arial, sans-serif" font-size="12" text-anchor="end">Roadmap 69%</text></g></g><g transform="translate(720 120)"><rect width="400" height="180" fill="#fff" stroke="rgba(15,23,42,0.08)" rx="20"/><text x="30" y="64" fill="#0f172a" font-family="Inter, Arial, sans-serif" font-size="30" font-weight="800">Perfil organizado</text><text x="30" y="96" fill="#334155" font-family="Inter, Arial, sans-serif" font-size="16" opacity=".85">Links para projetos, resultados e aprendizados</text><g opacity=".94" transform="translate(26 112)"><rect width="120" height="36" fill="rgba(14,165,233,0.12)" rx="10"/><text x="60" y="24" fill="#0f172a" font-family="Inter, Arial, sans-serif" font-size="14" font-weight="700" text-anchor="middle">Portfolio</text></g><g opacity=".94" transform="translate(156 112)"><rect width="118" height="36" fill="rgba(100,116,139,0.14)" rx="10"/><text x="59" y="24" fill="#0f172a" font-family="Inter, Arial, sans-serif" font-size="14" font-weight="700" text-anchor="middle">Blog</text></g><g opacity=".94" transform="translate(286 112)"><rect width="88" height="36" fill="rgba(124,58,237,0.12)" rx="10"/><text x="44" y="24" fill="#0f172a" font-family="Inter, Arial, sans-serif" font-size="14" font-weight="700" text-anchor="middle">Stack</text></g></g></svg>
