<svg viewBox="0 0 1200 630" xmlns="http://www.w3.org/2000/svg" width="1200" height="630" fill="none" preserveAspectRatio="xMidYMid slice"><defs><linearGradient id="c13-bg" x1="0" x2="1200" y1="0" y2="630" gradientUnits="userSpaceOnUse"><stop offset="0" stop-color="#0b1024"/><stop offset=".45" stop-color="#111b3d"/><stop offset="1" stop-color="#0b2746"/></linearGradient><linearGradient id="c13-glow" x1="0" x2="1" y1="0" y2="1"><stop offset="0" stop-color="#7c3aed" stop-opacity=".6"/><stop offset=".5" stop-color="#06b6d4" stop-opacity=".8"/><stop offset="1" stop-color="#22c55e" stop-opacity=".45"/></linearGradient><pattern id="c13-grid" width="80" height="80" patternUnits="userSpaceOnUse"><path stroke="rgba(148,163,184,0.2)" d="M80 0H0v80"/><path stroke="rgba(148,163,184,0.08)" d="M0 40h80M40 0v80"/></pattern><filter id="c13-blur" width="200%" height="200%" x="-50%" y="-50%"><feGaussianBlur stdDeviation="40"/></filter></defs><path fill="url(#c13-bg)" d="M0 0h1200v630H0z"/><path fill="url(#c13-grid)" d="M0 0h1200v630H0z" opacity=".35"/><circle cx="230" cy="120" r="180" fill="#7c3aed" filter="url(#c13-blur)" opacity=".35"/><circle cx="980" cy="520" r="200" fill="#06b6d4" filter="url(#c13-blur)" opacity=".28"/><path fill="url(#c13-glow)" d="M0 420c220-60 340-28 520 16s330 48 560-36v230H0z" opacity=".3"/><g transform="translate(110 120)"><rect width="520" height="320" fill="rgba(255,255,255,0.04)" stroke="rgba(255,255,255,0.16)" rx="26"/><rect width="480" height="110" x="20" y="24" fill="rgba(17,24,39,0.7)" stroke="rgba(255,255,255,0.12)" rx="18"/><text x="44" y="80" fill="#e2e8f0" font-family="Inter, Arial, sans-serif" font-size="42" font-weight="800">Build · Ship · Share</text><text x="44" y="122" fill="#a5f3fc" font-family="Inter, Arial, sans-serif" font-size="20" opacity=".9">Perfil dev com vitrine, comunidade e entregas reais</text><g fill="rgba(6,182,212,0.12)" stroke="rgba(6,182,212,0.25)" opacity=".95" transform="translate(32 170)"><rect width="136" height="42" rx="12"/><text x="68" y="27" fill="#a5f3fc" font-family="Inter, Arial, sans-serif" font-size="16" font-weight="600" text-anchor="middle">Open Source</text></g><g fill="rgba(124,58,237,0.12)" stroke="rgba(124,58,237,0.25)" opacity=".95" transform="translate(186 170)"><rect width="126" height="42" rx="12"/><text x="63" y="27" fill="#ddd6fe" font-family="Inter, Arial, sans-serif" font-size="16" font-weight="600" text-anchor="middle">Side Projects</text></g><g fill="rgba(34,197,94,0.12)" stroke="rgba(34,197,94,0.25)" opacity=".95" transform="translate(330 170)"><rect width="150" height="42" rx="12"/><text x="75" y="27" fill="#bbf7d0" font-family="Inter, Arial, sans-serif" font-size="16" font-weight="700" text-anchor="middle">Mentorias</text></g><g transform="translate(32 238)"><rect width="456" height="62" fill="rgba(255,255,255,0.06)" stroke="rgba(255,255,255,0.14)" rx="14"/><text x="24" y="39" fill="#cbd5e1" font-family="ui-monospace, SFMono-Regular, Menlo, Monaco, Consolas, 'Liberation Mono', 'Courier New', monospace" font-size="17">status: shipping weekly · sharing learnings</text></g></g><g transform="translate(720 130)"><rect width="370" height="150" fill="rgba(255,255,255,0.05)" stroke="rgba(255,255,255,0.14)" rx="18"/><text x="28" y="54" fill="#e2e8f0" font-family="Inter, Arial, sans-serif" font-size="32" font-weight="800">Release Train</text><text x="28" y="88" fill="#cbd5e1" font-family="Inter, Arial, sans-serif" font-size="17" opacity=".9">Short feedback loops, métricas e confiança</text><g opacity=".9" transform="translate(24 104)"><rect width="120" height="32" fill="rgba(124,58,237,0.18)" rx="10"/><text x="60" y="22" fill="#e9d5ff" font-family="Inter, Arial, sans-serif" font-size="14" font-weight="700" text-anchor="middle">Deploy Friday</text></g><g opacity=".9" transform="translate(154 104)"><rect width="90" height="32" fill="rgba(6,182,212,0.18)" rx="10"/><text x="45" y="22" fill="#a5f3fc" font-family="Inter, Arial, sans-serif" font-size="14" font-weight="700" text-anchor="middle">Docs</text></g><g opacity=".9" transform="translate(254 104)"><rect width="92" height="32" fill="rgba(34,197,94,0.18)" rx="10"/><text x="46" y="22" fill="#bbf7d0" font-family="Inter, Arial, sans-serif" font-size="14" font-weight="700" text-anchor="middle">Mentor</text></g></g></svg>
