<svg xmlns="http://www.w3.org/2000/svg" width="1200" height="630" fill="none" preserveAspectRatio="xMidYMid slice"><defs><linearGradient id="capa7-bg" x1="0" x2="1200" y1="0" y2="630" gradientUnits="userSpaceOnUse"><stop offset="0" stop-color="#020617"/><stop offset=".55" stop-color="#0b1220"/><stop offset="1" stop-color="#0f172a"/></linearGradient><linearGradient id="capa7-green" x1="0" x2="1200" y1="0" y2="0" gradientUnits="userSpaceOnUse"><stop offset="0" stop-color="#22c55e" stop-opacity="0"/><stop offset=".15" stop-color="#22c55e" stop-opacity=".7"/><stop offset=".5" stop-color="#34d399" stop-opacity=".65"/><stop offset=".85" stop-color="#22c55e" stop-opacity=".7"/><stop offset="1" stop-color="#22c55e" stop-opacity="0"/></linearGradient><linearGradient id="capa7-glass" x1="0" x2="0" y1="0" y2="1"><stop offset="0" stop-color="rgba(255,255,255,.10)"/><stop offset="1" stop-color="rgba(255,255,255,.03)"/></linearGradient><pattern id="capa7-grid" width="60" height="60" patternUnits="userSpaceOnUse"><path stroke="rgba(34,197,94,.12)" d="M60 0H0v60"/><path stroke="rgba(34,197,94,.06)" d="M30 0v60M0 30h60"/></pattern><filter id="capa7-glow" width="200%" height="200%" x="-50%" y="-50%"><feGaussianBlur result="blur" stdDeviation="6"/><feMerge><feMergeNode in="blur"/><feMergeNode in="SourceGraphic"/></feMerge></filter></defs><path fill="url(#capa7-bg)" d="M0 0h1200v630H0z"/><path fill="url(#capa7-grid)" d="M0 0h1200v630H0z" opacity=".55"/><path fill="rgba(34,197,94,.06)" d="M0 430c160-50 300 70 460 20s260-190 440-150c140 30 220 120 300 90v240H0z"/><path stroke="url(#capa7-green)" stroke-width="3" d="M0 470c190-50 320 60 500 10s260-170 420-150c130 15 205 110 280 80" filter="url(#capa7-glow)" opacity=".9"><animate attributeName="d" dur="4.5s" repeatCount="indefinite" values="M0 470C190 420 320 530 500 480C680 430 760 310 920 330C1050 345 1125 440 1200 410; M0 470C200 450 330 500 510 470C690 440 770 290 930 320C1060 340 1130 450 1200 410; M0 470C190 420 320 530 500 480C680 430 760 310 920 330C1050 345 1125 440 1200 410"/></path><g opacity=".9"><circle cx="220" cy="170" r="120" fill="rgba(34,197,94,.10)"/><circle cx="220" cy="170" r="78" stroke="rgba(52,211,153,.40)" stroke-width="2" filter="url(#capa7-glow)"><animate attributeName="r" dur="2.6s" repeatCount="indefinite" values="78;92;78"/><animate attributeName="opacity" dur="2.6s" repeatCount="indefinite" values=".35;.7;.35"/></circle><circle cx="980" cy="180" r="140" fill="rgba(34,197,94,.08)"/><circle cx="980" cy="180" r="90" stroke="rgba(34,197,94,.35)" stroke-width="2" filter="url(#capa7-glow)"><animate attributeName="r" dur="3.2s" repeatCount="indefinite" values="90;110;90"/><animate attributeName="opacity" dur="3.2s" repeatCount="indefinite" values=".28;.6;.28"/></circle></g><g transform="translate(110 130)"><rect width="980" height="240" fill="url(#capa7-glass)" stroke="rgba(255,255,255,.12)" rx="22"/><rect width="936" height="196" x="22" y="22" fill="rgba(2,6,23,.55)" stroke="rgba(34,197,94,.20)" rx="14"/><g fill="#e2e8f0" font-family="ui-monospace, SFMono-Regular, Menlo, Monaco, Consolas, 'Liberation Mono', 'Courier New', monospace" font-size="20"><text opacity=".85" transform="translate(44 52)">$ curl -s https://galeria-drab.vercel.app</text><text y="44" fill="#34d399" filter="url(#capa7-glow)" transform="translate(44 52)">✔ build passing</text><text y="88" opacity=".85" transform="translate(44 52)">$ git status</text><text y="132" fill="#22c55e" filter="url(#capa7-glow)" transform="translate(44 52)">On branch main · nothing to commit</text><text y="176" opacity=".85" transform="translate(44 52)">$ echo &quot;Hello, GitHub!&quot;</text></g></g><g fill="#e2e8f0" font-family="Arial, sans-serif"><text font-size="54" font-weight="700" transform="translate(110 405)">Terminal Banner</text><text y="46" font-size="28" opacity=".85" transform="translate(110 405)">Um estilo &quot;CLI&quot; com grid e brilho verde</text></g></svg>
