<svg viewBox="0 0 1200 630" xmlns="http://www.w3.org/2000/svg" width="1200" height="630" fill="none" preserveAspectRatio="xMidYMid slice"><defs><linearGradient id="capa10-bg" x1="0" x2="1200" y1="0" y2="630" gradientUnits="userSpaceOnUse"><stop offset="0" stop-color="#03130e"/><stop offset=".55" stop-color="#06241a"/><stop offset="1" stop-color="#071a13"/></linearGradient><linearGradient id="capa10-accent" x1="0" x2="1200" y1="0" y2="0" gradientUnits="userSpaceOnUse"><stop offset="0" stop-color="#22c55e" stop-opacity="0"/><stop offset=".18" stop-color="#22c55e" stop-opacity=".55"/><stop offset=".5" stop-color="#34d399" stop-opacity=".5"/><stop offset=".82" stop-color="#22c55e" stop-opacity=".55"/><stop offset="1" stop-color="#22c55e" stop-opacity="0"/></linearGradient><linearGradient id="capa10-glass" x1="0" x2="0" y1="0" y2="1"><stop offset="0" stop-color="rgba(255,255,255,.10)"/><stop offset="1" stop-color="rgba(255,255,255,.03)"/></linearGradient><pattern id="capa10-circuit" width="140" height="140" patternUnits="userSpaceOnUse"><path stroke="rgba(34,197,94,.10)" stroke-width="2" d="M10 30h50m0 0v50m0 0h60m0 0v40"/><circle cx="10" cy="30" r="3" fill="rgba(34,197,94,.24)"/><circle cx="60" cy="30" r="3" fill="rgba(52,211,153,.22)"/><circle cx="60" cy="80" r="3" fill="rgba(34,197,94,.18)"/><circle cx="120" cy="80" r="3" fill="rgba(52,211,153,.18)"/><circle cx="120" cy="120" r="3" fill="rgba(34,197,94,.16)"/></pattern><filter id="capa10-glow" width="200%" height="200%" x="-50%" y="-50%"><feGaussianBlur result="blur" stdDeviation="7"/><feMerge><feMergeNode in="blur"/><feMergeNode in="SourceGraphic"/></feMerge></filter></defs><path fill="url(#capa10-bg)" d="M0 0h1200v630H0z"/><path fill="url(#capa10-circuit)" d="M0 0h1200v630H0z" opacity=".75"/><path fill="rgba(34,197,94,.06)" d="M0 520c180-60 360 80 560 20s320-180 480-140c85 20 130 55 160 40v190H0z"/><path stroke="url(#capa10-accent)" stroke-width="3" d="M0 492c210-52 390 83 600 18 190-60 300-170 460-130 75 20 120 50 140 38" filter="url(#capa10-glow)" opacity=".9"><animate attributeName="d" dur="5s" repeatCount="indefinite" values="M0 492C210 440 390 575 600 510C790 450 900 340 1060 380C1135 400 1180 430 1200 418; M0 492C230 460 410 545 620 500C805 460 915 320 1075 370C1145 405 1185 440 1200 418; M0 492C210 440 390 575 600 510C790 450 900 340 1060 380C1135 400 1180 430 1200 418"/></path><g transform="translate(110 130)"><rect width="980" height="260" fill="url(#capa10-glass)" stroke="rgba(255,255,255,.14)" rx="24"/><rect width="940" height="220" x="20" y="20" fill="rgba(2,6,23,.45)" stroke="rgba(34,197,94,.18)" rx="18"/><g font-family="Arial, sans-serif"><text fill="#e2e8f0" font-size="64" font-weight="800" transform="translate(56 76)">Moralus OSS</text><text y="56" fill="#bbf7d0" font-size="28" opacity=".92" transform="translate(56 76)">Open Source, comunidade e ferramentas para devs</text><g opacity=".95" transform="translate(56 168)"><rect width="170" height="42" fill="rgba(34,197,94,.18)" stroke="rgba(52,211,153,.25)" rx="21"/><text x="85" y="28" fill="#f0fdf4" font-size="18" text-anchor="middle">Open Source</text></g><g opacity=".95" transform="translate(246 168)"><rect width="120" height="42" fill="rgba(34,197,94,.12)" stroke="rgba(34,197,94,.22)" rx="21"/><text x="60" y="28" fill="#dcfce7" font-size="18" text-anchor="middle">MIT</text></g><g opacity=".95" transform="translate(386 168)"><rect width="170" height="42" fill="rgba(34,197,94,.12)" stroke="rgba(34,197,94,.22)" rx="21"/><text x="85" y="28" fill="#dcfce7" font-size="18" text-anchor="middle">Contribuições</text></g></g><g opacity=".92" transform="translate(740 52)"><circle cx="120" cy="90" r="88" fill="rgba(34,197,94,.10)"/><circle cx="120" cy="90" r="56" stroke="rgba(52,211,153,.35)" stroke-width="3" filter="url(#capa10-glow)"><animate attributeName="r" dur="3.4s" repeatCount="indefinite" values="56;66;56"/><animate attributeName="opacity" dur="3.4s" repeatCount="indefinite" values=".35;.75;.35"/></circle><text x="120" y="98" fill="#22c55e" filter="url(#capa10-glow)" font-family="ui-monospace, SFMono-Regular, Menlo, Monaco, Consolas, 'Liberation Mono', 'Courier New', monospace" font-size="34" font-weight="800" text-anchor="middle">OSS</text></g></g></svg>
