<svg viewBox="0 0 1200 630" xmlns="http://www.w3.org/2000/svg" width="1200" height="630" fill="none" preserveAspectRatio="xMidYMid slice"><defs><linearGradient id="capa11-bg" x1="0" x2="1200" y1="0" y2="630" gradientUnits="userSpaceOnUse"><stop offset="0" stop-color="#041a12"/><stop offset=".6" stop-color="#052317"/><stop offset="1" stop-color="#020b08"/></linearGradient><linearGradient id="capa11-line" x1="0" x2="1" y1="0" y2="0"><stop offset="0" stop-color="#22c55e" stop-opacity="0"/><stop offset=".25" stop-color="#22c55e" stop-opacity=".55"/><stop offset=".7" stop-color="#34d399" stop-opacity=".4"/><stop offset="1" stop-color="#34d399" stop-opacity="0"/></linearGradient><filter id="capa11-glow" width="200%" height="200%" x="-50%" y="-50%"><feGaussianBlur result="b" stdDeviation="6"/><feMerge><feMergeNode in="b"/><feMergeNode in="SourceGraphic"/></feMerge></filter></defs><path fill="url(#capa11-bg)" d="M0 0h1200v630H0z"/><g fill="#dcfce7" font-family="Arial, sans-serif" font-size="140" font-weight="900" opacity=".18"><text x="80" y="210">OPEN SOURCE</text><text x="80" y="360">OPEN SOURCE</text><text x="80" y="510">OPEN SOURCE</text></g><g opacity=".8"><path stroke="rgba(34,197,94,.12)" stroke-width="2" d="M0 110h1200"/><path stroke="rgba(34,197,94,.10)" stroke-width="2" d="M0 520h1200"/><path stroke="url(#capa11-line)" stroke-width="4" d="M0 315h1200" filter="url(#capa11-glow)" opacity=".9"/><path stroke="rgba(52,211,153,.10)" stroke-width="2" d="m-60 40 1320 580"/><path stroke="rgba(34,197,94,.08)" stroke-width="2" d="m-120 120 1320 580"/></g><g font-family="Arial, sans-serif"><text fill="#f1f5f9" font-size="72" font-weight="900" transform="translate(110 210)">Moralus OSS</text><text y="56" fill="#bbf7d0" font-size="30" opacity=".92" transform="translate(110 210)">Open Source • Construindo em público</text><g opacity=".95" transform="translate(110 302)"><rect width="210" height="44" fill="rgba(34,197,94,.16)" stroke="rgba(52,211,153,.22)" rx="22"/><text x="105" y="29" fill="#f0fdf4" font-size="18" text-anchor="middle">Open Source</text></g><g opacity=".95" transform="translate(340 302)"><rect width="190" height="44" fill="rgba(34,197,94,.10)" stroke="rgba(34,197,94,.20)" rx="22"/><text x="95" y="29" fill="#dcfce7" font-size="18" text-anchor="middle">Comunidade</text></g><g opacity=".95" transform="translate(550 302)"><rect width="160" height="44" fill="rgba(34,197,94,.10)" stroke="rgba(34,197,94,.20)" rx="22"/><text x="80" y="29" fill="#dcfce7" font-size="18" text-anchor="middle">Ferramentas</text></g></g><g opacity=".95" transform="translate(980 90)"><circle cx="80" cy="80" r="72" fill="rgba(34,197,94,.08)"/><circle cx="80" cy="80" r="50" stroke="rgba(52,211,153,.35)" stroke-width="3" filter="url(#capa11-glow)"><animate attributeName="r" dur="3s" repeatCount="indefinite" values="50;58;50"/></circle><path stroke="#22c55e" stroke-linecap="round" stroke-linejoin="round" stroke-width="6" d="m60 83 14 14 30-34" filter="url(#capa11-glow)"/></g></svg>
