<svg viewBox="0 0 1200 630" xmlns="http://www.w3.org/2000/svg" width="1200" height="630" fill="none" preserveAspectRatio="xMidYMid slice"><defs><linearGradient id="darkBg3" x1="0%" x2="100%" y1="0%" y2="100%"><stop offset="0%" stop-color="#1a1625"/><stop offset="50%" stop-color="#2d1b4e"/><stop offset="100%" stop-color="#1f0f3d"/></linearGradient><linearGradient id="orangeAccent" x1="0%" x2="100%" y1="0%" y2="100%"><stop offset="0%" stop-color="#f97316" stop-opacity=".8"/><stop offset="100%" stop-color="#fb923c" stop-opacity=".6"/></linearGradient><linearGradient id="amberAccent" x1="100%" x2="0%" y1="0%" y2="100%"><stop offset="0%" stop-color="#fbbf24" stop-opacity=".7"/><stop offset="100%" stop-color="#f97316" stop-opacity=".5"/></linearGradient><radialGradient id="orangeGlow"><stop offset="0%" stop-color="#f97316" stop-opacity=".4"/><stop offset="100%" stop-color="#f97316" stop-opacity="0"/></radialGradient><radialGradient id="amberGlow"><stop offset="0%" stop-color="#fbbf24" stop-opacity=".3"/><stop offset="100%" stop-color="#fbbf24" stop-opacity="0"/></radialGradient><pattern id="darkDots3" width="25" height="25" patternUnits="userSpaceOnUse"><circle cx="2.5" cy="2.5" r="1" fill="rgba(249, 115, 22, 0.12)"/></pattern></defs><path fill="url(#darkBg3)" d="M0 0h1200v630H0z"/><path fill="url(#darkDots3)" d="M0 0h1200v630H0z" opacity=".6"/><circle cx="150" cy="100" r="280" fill="url(#orangeGlow)"/><circle cx="1050" cy="530" r="320" fill="url(#amberGlow)"/><g opacity=".2"><path fill="url(#orangeAccent)" d="m400 150 50-30 50 30v60l-50 30-50-30z"><animate attributeName="opacity" dur="4s" repeatCount="indefinite" values="0.2;0.35;0.2"/></path><path fill="url(#amberAccent)" d="m700 400 50-30 50 30v60l-50 30-50-30z"><animate attributeName="opacity" dur="4s" repeatCount="indefinite" values="0.2;0.3;0.2"/></path></g><path stroke="#f97316" d="M0 315h1200" opacity=".1"/><path stroke="#fbbf24" d="M600 0v630" opacity=".1"/><circle cx="300" cy="300" r="120" stroke="#f97316" stroke-width="2" opacity=".25"><animate attributeName="r" dur="5s" repeatCount="indefinite" values="120;150;120"/></circle><circle cx="900" cy="300" r="100" stroke="#fbbf24" stroke-width="2" opacity=".3"><animate attributeName="r" dur="4s" repeatCount="indefinite" values="100;130;100"/></circle><path stroke="#f97316" stroke-width="2" d="M0 315q150-35 300 0t300 0 300 0 300 0" opacity=".15"/><rect width="700" height="300" x="250" y="165" fill="rgba(249, 115, 22, 0.03)" stroke="#f97316" stroke-width="2" opacity=".2" rx="25"/></svg>
