<svg xmlns="http://www.w3.org/2000/svg" width="1200" height="630" fill="none" preserveAspectRatio="xMidYMid slice"><defs><linearGradient id="capa12-bg" x1="0" x2="1200" y1="0" y2="630" gradientUnits="userSpaceOnUse"><stop offset="0" stop-color="#020f0a"/><stop offset=".5" stop-color="#052e1e"/><stop offset="1" stop-color="#041a12"/></linearGradient><linearGradient id="capa12-stroke" x1="0" x2="1" y1="0" y2="0"><stop offset="0" stop-color="#22c55e" stop-opacity="0"/><stop offset=".2" stop-color="#22c55e" stop-opacity=".55"/><stop offset=".8" stop-color="#34d399" stop-opacity=".45"/><stop offset="1" stop-color="#34d399" stop-opacity="0"/></linearGradient><radialGradient id="capa12-spot" cx="0" cy="0" r="1" gradientTransform="rotate(120 366.491 358.26)scale(520 420)" gradientUnits="userSpaceOnUse"><stop offset="0" stop-color="#34d399" stop-opacity=".25"/><stop offset="1" stop-color="#34d399" stop-opacity="0"/></radialGradient><filter id="capa12-glow" width="200%" height="200%" x="-50%" y="-50%"><feGaussianBlur result="b" stdDeviation="8"/><feMerge><feMergeNode in="b"/><feMergeNode in="SourceGraphic"/></feMerge></filter></defs><path fill="url(#capa12-bg)" d="M0 0h1200v630H0z"/><path fill="url(#capa12-spot)" d="M0 0h1200v630H0z"/><g stroke="url(#capa12-stroke)" stroke-width="3" opacity=".9"><path d="M120 120h960" filter="url(#capa12-glow)"/><path d="M120 510h960" filter="url(#capa12-glow)" opacity=".7"/></g><path fill="rgba(34,197,94,.12)" stroke="rgba(52,211,153,.32)" stroke-width="3" d="m90 0 78 45v90l-78 45-78-45V45z" filter="url(#capa12-glow)" transform="translate(120 170)"/><path fill="rgba(2,6,23,.55)" stroke="rgba(34,197,94,.22)" stroke-width="2" d="m210 206 44 26v52l-44 26-44-26v-52z"/><text x="90" y="102" fill="#22c55e" filter="url(#capa12-glow)" font-family="ui-monospace, SFMono-Regular, Menlo, Monaco, Consolas, 'Liberation Mono', 'Courier New', monospace" font-size="30" font-weight="900" text-anchor="middle" transform="translate(120 170)">OSS</text><g font-family="Arial, sans-serif"><text fill="#f1f5f9" font-size="78" font-weight="900" transform="translate(340 230)">Moralus OSS</text><text y="60" fill="#bbf7d0" font-size="30" opacity=".92" transform="translate(340 230)">Projetos open source com identidade forte</text><g opacity=".95" transform="translate(340 334)"><rect width="210" height="46" fill="rgba(34,197,94,.16)" stroke="rgba(52,211,153,.22)" rx="23"/><text x="105" y="30" fill="#f0fdf4" font-size="18" text-anchor="middle">Open Source</text></g><g opacity=".95" transform="translate(570 334)"><rect width="190" height="46" fill="rgba(34,197,94,.10)" stroke="rgba(34,197,94,.20)" rx="23"/><text x="95" y="30" fill="#dcfce7" font-size="18" text-anchor="middle">Colab &amp; PRs</text></g><g opacity=".95" transform="translate(780 334)"><rect width="170" height="46" fill="rgba(34,197,94,.10)" stroke="rgba(34,197,94,.20)" rx="23"/><text x="85" y="30" fill="#dcfce7" font-size="18" text-anchor="middle">MIT Ready</text></g></g><g opacity=".35"><circle cx="1010" cy="220" r="10" fill="#34d399"/><circle cx="1040" cy="250" r="6" fill="#22c55e"/><circle cx="980" cy="270" r="6" fill="#22c55e"/><circle cx="1045" cy="300" r="10" fill="#34d399"/></g></svg>
