<svg viewBox="0 0 1200 630" xmlns="http://www.w3.org/2000/svg" width="1200" height="630" fill="none" preserveAspectRatio="xMidYMid slice"><defs><linearGradient id="capa9-bg" x1="0" x2="1200" y1="0" y2="630" gradientUnits="userSpaceOnUse"><stop offset="0" stop-color="#0b1220"/><stop offset=".55" stop-color="#0b3a5a"/><stop offset="1" stop-color="#0f172a"/></linearGradient><linearGradient id="capa9-accent" x1="0" x2="1" y1="0" y2="0"><stop offset="0" stop-color="#60a5fa" stop-opacity="0"/><stop offset=".2" stop-color="#60a5fa" stop-opacity=".65"/><stop offset=".8" stop-color="#93c5fd" stop-opacity=".6"/><stop offset="1" stop-color="#93c5fd" stop-opacity="0"/></linearGradient><pattern id="capa9-grid" width="40" height="40" patternUnits="userSpaceOnUse"><path stroke="rgba(147,197,253,.18)" d="M40 0H0v40"/><path stroke="rgba(147,197,253,.08)" d="M20 0v40M0 20h40"/></pattern><filter id="capa9-glow" width="200%" height="200%" x="-50%" y="-50%"><feGaussianBlur result="blur" stdDeviation="5"/><feMerge><feMergeNode in="blur"/><feMergeNode in="SourceGraphic"/></feMerge></filter></defs><path fill="url(#capa9-bg)" d="M0 0h1200v630H0z"/><path fill="url(#capa9-grid)" d="M0 0h1200v630H0z" opacity=".75"/><g opacity=".85"><path stroke="url(#capa9-accent)" stroke-width="3" d="M120 120h960" filter="url(#capa9-glow)"/><path stroke="url(#capa9-accent)" stroke-width="3" d="M140 510h920" filter="url(#capa9-glow)" opacity=".75"/><path stroke="rgba(96,165,250,.35)" stroke-width="2" d="M210 160v310"/><path stroke="rgba(147,197,253,.30)" stroke-width="2" d="M990 160v310"/><rect width="700" height="250" x="250" y="190" fill="rgba(2,6,23,.30)" stroke="rgba(147,197,253,.22)" rx="24"/><g fill="#fff" font-family="Arial, sans-serif"><text font-size="60" font-weight="800" transform="translate(290 250)">Blueprint</text><text y="58" fill="#e0f2fe" font-size="28" opacity=".9" transform="translate(290 250)">Linhas técnicas, grid e foco em conteúdo</text></g><g font-family="Arial, sans-serif" opacity=".95" transform="translate(290 360)"><rect width="160" height="42" fill="rgba(96,165,250,.20)" stroke="rgba(147,197,253,.25)" rx="21"/><text x="80" y="28" fill="#fff" font-size="18" text-anchor="middle">Docs</text><g transform="translate(180)"><rect width="180" height="42" fill="rgba(96,165,250,.20)" stroke="rgba(147,197,253,.25)" rx="21"/><text x="90" y="28" fill="#fff" font-size="18" text-anchor="middle">Arquitetura</text></g><g transform="translate(380)"><rect width="170" height="42" fill="rgba(96,165,250,.20)" stroke="rgba(147,197,253,.25)" rx="21"/><text x="85" y="28" fill="#fff" font-size="18" text-anchor="middle">Métricas</text></g></g><g opacity=".55"><circle cx="170" cy="170" r="6" fill="#93c5fd"/><circle cx="1030" cy="460" r="6" fill="#60a5fa"/><circle cx="1040" cy="190" r="4" fill="#93c5fd"/><circle cx="190" cy="470" r="4" fill="#60a5fa"/></g></g></svg>
