<svg viewBox="0 0 1200 630" xmlns="http://www.w3.org/2000/svg" width="1200" height="630" fill="none" preserveAspectRatio="xMidYMid slice"><defs><linearGradient id="bgGradient" x1="0%" x2="100%" y1="0%" y2="100%"><stop offset="0%" stop-color="#0a4d3a"/><stop offset="50%" stop-color="#064532"/><stop offset="100%" stop-color="#082f26"/></linearGradient><linearGradient id="accentGradient1" x1="0%" x2="100%" y1="0%" y2="100%"><stop offset="0%" stop-color="#10b981" stop-opacity=".8"/><stop offset="100%" stop-color="#34d399" stop-opacity=".6"/></linearGradient><linearGradient id="accentGradient2" x1="100%" x2="0%" y1="0%" y2="100%"><stop offset="0%" stop-color="#34d399" stop-opacity=".7"/><stop offset="100%" stop-color="#10b981" stop-opacity=".5"/></linearGradient><linearGradient id="accentGradient3" x1="0%" x2="100%" y1="100%" y2="0%"><stop offset="0%" stop-color="#059669" stop-opacity=".6"/><stop offset="100%" stop-color="#34d399" stop-opacity=".8"/></linearGradient><radialGradient id="glow1"><stop offset="0%" stop-color="#10b981" stop-opacity=".4"/><stop offset="100%" stop-color="#10b981" stop-opacity="0"/></radialGradient><radialGradient id="glow2"><stop offset="0%" stop-color="#34d399" stop-opacity=".3"/><stop offset="100%" stop-color="#34d399" stop-opacity="0"/></radialGradient><pattern id="dots" width="20" height="20" patternUnits="userSpaceOnUse"><circle cx="2" cy="2" r="1" fill="rgba(16, 185, 129, 0.15)"/></pattern></defs><path fill="url(#bgGradient)" d="M0 0h1200v630H0z"/><path fill="url(#dots)" d="M0 0h1200v630H0z" opacity=".3"/><circle cx="200" cy="150" r="300" fill="url(#glow1)"/><circle cx="1000" cy="500" r="350" fill="url(#glow2)"/><circle cx="600" cy="300" r="250" fill="url(#glow1)"/><circle cx="150" cy="180" r="120" fill="url(#accentGradient1)" opacity=".3"><animate attributeName="r" dur="4s" repeatCount="indefinite" values="120;140;120"/></circle><circle cx="150" cy="180" r="90" stroke="#10b981" stroke-width="3" opacity=".4"><animate attributeName="r" dur="3s" repeatCount="indefinite" values="90;100;90"/></circle><rect width="180" height="180" x="300" y="100" fill="url(#accentGradient2)" opacity=".25" rx="20" transform="rotate(-15 390 190)"><animateTransform attributeName="transform" dur="5s" repeatCount="indefinite" type="rotate" values="-15 390 190; -20 390 190; -15 390 190"/></rect><rect width="200" height="200" x="850" y="350" fill="url(#accentGradient1)" opacity=".2" rx="25" transform="rotate(20 950 450)"><animateTransform attributeName="transform" dur="6s" repeatCount="indefinite" type="rotate" values="20 950 450; 25 950 450; 20 950 450"/></rect><path fill="url(#accentGradient3)" stroke="#34d399" stroke-width="3" d="m600 200 80 40v80l-80 40-80-40v-80z" opacity=".3"><animate attributeName="opacity" dur="4s" repeatCount="indefinite" values="0.3;0.5;0.3"/></path><circle cx="1050" cy="200" r="80" stroke="#10b981" stroke-width="4" opacity=".4"><animate attributeName="r" dur="3.5s" repeatCount="indefinite" values="80;90;80"/></circle><circle cx="1050" cy="200" r="50" fill="url(#accentGradient2)" opacity=".3"/><path fill="url(#accentGradient1)" d="m100 500 180-60v120z" opacity=".25"><animateTransform attributeName="transform" dur="5s" repeatCount="indefinite" type="rotate" values="0 193 500; 5 193 500; 0 193 500"/></path><path stroke="url(#accentGradient1)" stroke-width="3" d="M0 300q300-100 600 0t600 0" opacity=".3"><animate attributeName="d" dur="8s" repeatCount="indefinite" values="M 0 300 Q 300 200 600 300 T 1200 300; M 0 300 Q 300 250 600 300 T 1200 300; M 0 300 Q 300 200 600 300 T 1200 300"/></path><path stroke="url(#accentGradient2)" stroke-width="2" d="M0 400q400 100 800 0t400 0" opacity=".25"><animate attributeName="d" dur="7s" repeatCount="indefinite" values="M 0 400 Q 400 500 800 400 T 1200 400; M 0 400 Q 400 450 800 400 T 1200 400; M 0 400 Q 400 500 800 400 T 1200 400"/></path><circle cx="450" cy="450" r="15" fill="#10b981" opacity=".4"><animate attributeName="cy" dur="3s" repeatCount="indefinite" values="450;430;450"/></circle><circle cx="750" cy="150" r="12" fill="#34d399" opacity=".5"><animate attributeName="cy" dur="4s" repeatCount="indefinite" values="150;170;150"/></circle><circle cx="200" cy="400" r="18" fill="#10b981" opacity=".35"><animate attributeName="cy" dur="3.5s" repeatCount="indefinite" values="400;420;400"/></circle><circle cx="950" cy="550" r="14" fill="#34d399" opacity=".45"><animate attributeName="cy" dur="4.5s" repeatCount="indefinite" values="550;530;550"/></circle><g stroke-width="2" opacity=".15"><path stroke="#10b981" d="M50 100h200M50 130h130M70 160h150"/><path stroke="#34d399" d="M950 500h200m-180 30h150m-170 30h150"/></g><g opacity=".6"><circle cx="350" cy="250" r="3" fill="#10b981"><animate attributeName="opacity" dur="2s" repeatCount="indefinite" values="0.6;1;0.6"/></circle><circle cx="850" cy="280" r="3" fill="#34d399"><animate attributeName="opacity" dur="2.5s" repeatCount="indefinite" values="0.6;1;0.6"/></circle><circle cx="650" cy="500" r="3" fill="#10b981"><animate attributeName="opacity" dur="3s" repeatCount="indefinite" values="0.6;1;0.6"/></circle></g></svg>
