<svg viewBox="0 0 1200 630" xmlns="http://www.w3.org/2000/svg" width="1200" height="630" fill="none" preserveAspectRatio="xMidYMid slice"><defs><linearGradient id="c17-bg" x1="0" x2="0" y1="0" y2="630" gradientUnits="userSpaceOnUse"><stop offset="0" stop-color="#0ea5e9"/><stop offset=".4" stop-color="#0f172a"/><stop offset="1" stop-color="#020617"/></linearGradient><linearGradient id="c17-wave" x1="0" x2="1200" y1="0" y2="0" gradientUnits="userSpaceOnUse"><stop offset="0" stop-color="#22d3ee" stop-opacity=".65"/><stop offset=".5" stop-color="#22c55e" stop-opacity=".5"/><stop offset="1" stop-color="#0ea5e9" stop-opacity=".65"/></linearGradient><linearGradient id="c17-glass" x1="0" x2="0" y1="0" y2="1"><stop offset="0" stop-color="rgba(255,255,255,0.18)"/><stop offset="1" stop-color="rgba(255,255,255,0.06)"/></linearGradient><pattern id="c17-dots" width="120" height="120" patternUnits="userSpaceOnUse"><circle cx="12" cy="24" r="3" fill="rgba(255,255,255,0.16)"/><circle cx="76" cy="84" r="2" fill="rgba(255,255,255,0.12)"/><circle cx="36" cy="104" r="2" fill="rgba(255,255,255,0.2)"/></pattern><filter id="c17-blur" width="200%" height="200%" x="-50%" y="-50%"><feGaussianBlur stdDeviation="55"/></filter></defs><path fill="url(#c17-bg)" d="M0 0h1200v630H0z"/><path fill="url(#c17-dots)" d="M0 0h1200v630H0z" opacity=".4"/><circle cx="230" cy="500" r="220" fill="#22d3ee" filter="url(#c17-blur)" opacity=".32"/><circle cx="980" cy="140" r="180" fill="#22c55e" filter="url(#c17-blur)" opacity=".28"/><path fill="url(#c17-wave)" d="M0 360c160-70 320-40 520 32s320 92 520 0v270H0z" opacity=".65"/><path fill="rgba(255,255,255,0.16)" d="M0 430c190-46 320 22 520 62s300-26 430-70 180-14 250 14v194H0z" opacity=".3"/><g transform="translate(90 110)"><rect width="560" height="340" fill="url(#c17-glass)" stroke="rgba(255,255,255,0.22)" rx="26"/><rect width="520" height="120" x="20" y="26" fill="rgba(2,6,23,0.6)" stroke="rgba(255,255,255,0.16)" rx="20"/><text x="46" y="92" fill="#e0f2fe" font-family="Inter, Arial, sans-serif" font-size="40" font-weight="800">Oceanic Wave</text><text x="46" y="126" fill="#a5f3fc" font-family="Inter, Arial, sans-serif" font-size="18" opacity=".92">Perfil com vibe oceano, comunidade e projetos</text><g opacity=".94" transform="translate(40 164)"><rect width="150" height="46" fill="rgba(34,197,94,0.16)" stroke="rgba(34,197,94,0.32)" rx="14"/><text x="75" y="30" fill="#dcfce7" font-family="Inter, Arial, sans-serif" font-size="16" font-weight="700" text-anchor="middle">Comunidade</text></g><g opacity=".94" transform="translate(210 164)"><rect width="150" height="46" fill="rgba(34,211,238,0.16)" stroke="rgba(14,165,233,0.32)" rx="14"/><text x="75" y="30" fill="#e0f2fe" font-family="Inter, Arial, sans-serif" font-size="16" font-weight="700" text-anchor="middle">Projetos</text></g><g opacity=".94" transform="translate(380 164)"><rect width="150" height="46" fill="rgba(14,165,233,0.16)" stroke="rgba(14,165,233,0.32)" rx="14"/><text x="75" y="30" fill="#e0f2fe" font-family="Inter, Arial, sans-serif" font-size="16" font-weight="700" text-anchor="middle">Mentorias</text></g><g transform="translate(40 232)"><rect width="500" height="70" fill="rgba(255,255,255,0.08)" stroke="rgba(255,255,255,0.18)" rx="16"/><text x="24" y="44" fill="#e0f2fe" font-family="ui-monospace, SFMono-Regular, Menlo, Monaco, Consolas, 'Liberation Mono', 'Courier New', monospace" font-size="18">links: github · blog · talk · newsletter</text></g></g><g transform="translate(720 120)"><rect width="420" height="190" fill="rgba(2,6,23,0.6)" stroke="rgba(34,211,238,0.24)" rx="22"/><text x="32" y="68" fill="#e0f2fe" font-family="Inter, Arial, sans-serif" font-size="32" font-weight="800">Perfil para comunidade</text><text x="32" y="102" fill="#bae6fd" font-family="Inter, Arial, sans-serif" font-size="16" opacity=".9">Compartilhe projetos, eventos e colaborações</text><g opacity=".94" transform="translate(30 118)"><rect width="128" height="38" fill="rgba(34,197,94,0.2)" rx="11"/><text x="64" y="25" fill="#dcfce7" font-family="Inter, Arial, sans-serif" font-size="14" font-weight="700" text-anchor="middle">Changelog</text></g><g opacity=".94" transform="translate(174 118)"><rect width="128" height="38" fill="rgba(34,211,238,0.2)" rx="11"/><text x="64" y="25" fill="#e0f2fe" font-family="Inter, Arial, sans-serif" font-size="14" font-weight="700" text-anchor="middle">Lives</text></g><g opacity=".94" transform="translate(318 118)"><rect width="82" height="38" fill="rgba(14,165,233,0.24)" rx="11"/><text x="41" y="25" fill="#e0f2fe" font-family="Inter, Arial, sans-serif" font-size="14" font-weight="700" text-anchor="middle">FAQ</text></g></g></svg>
